Coordinates
version=1
nRows=126
nColumns=11
inDegrees=no

Units are S.I. units (second, meters, Newtons, ...)
If the header above contains a line with 'inDegrees', this indicates whether rotational values are in degrees (yes) or radians (no).

endheader
time	pelvis_tilt	pelvis_tx	pelvis_ty	hip_flexion_r	knee_angle_r	ankle_angle_r	hip_flexion_l	knee_angle_l	ankle_angle_l	lumbar_extension
210.94	-0.0878826	0.217177	1.01665	0.0750729	-0.0759407	0.299255	0.609654	-0.721477	0.193379	0
210.95	-0.090475	0.215921	1.01574	0.0720101	-0.0778756	0.303642	0.61298	-0.673312	0.192035	0
210.96	-0.094819	0.214391	1.01443	0.0726448	-0.081482	0.309187	0.618202	-0.623167	0.185443	0
210.97	-0.0977825	0.213442	1.01321	0.0712293	-0.0864539	0.317474	0.617687	-0.567588	0.179359	0
210.98	-0.0836576	0.215921	1.0133	0.0438959	-0.0872124	0.33244	0.592308	-0.510675	0.173284	0
210.99	-0.0849634	0.215698	1.01173	0.0368573	-0.0875014	0.340124	0.585681	-0.452142	0.169118	0
211	-0.087338	0.215003	1.01038	0.0341713	-0.0929633	0.345793	0.579466	-0.392195	0.162617	0
211.01	-0.106538	0.210865	1.00753	0.0538305	-0.0978824	0.344485	0.597581	-0.337281	0.149722	0
211.02	-0.108245	0.210304	1.00607	0.0494903	-0.101928	0.351813	0.590528	-0.281385	0.14104	0
211.03	-0.107146	0.210413	1.00475	0.0419432	-0.107213	0.360108	0.579019	-0.226433	0.132997	0
211.04	-0.0897304	0.214184	1.00483	0.00910822	-0.107031	0.36998	0.54384	-0.171366	0.134234	0
211.05	-0.106146	0.211591	1.0017	0.0220353	-0.10829	0.370399	0.555405	-0.124721	0.129658	0
211.06	-0.091684	0.214382	1.00152	-0.00348632	-0.113513	0.381877	0.527043	-0.0822891	0.131119	0
211.07	-0.0933496	0.21423	0.999957	-0.00729697	-0.118798	0.389286	0.521434	-0.0467134	0.131288	0
211.08	-0.0894442	0.215483	0.998957	-0.0176858	-0.125191	0.393983	0.509708	-0.0184229	0.134641	0
211.09	-0.0933982	0.215477	0.997301	-0.0177238	-0.133007	0.394263	0.507401	0.00426498	0.137122	0
211.1	-0.113121	0.212261	0.994416	0.00199829	-0.140258	0.391459	0.528748	0.0135198	0.137761	0
211.11	-0.0962897	0.216516	0.99487	-0.0283868	-0.14253	0.398746	0.499774	0.0243747	0.148394	0
211.12	-0.0947534	0.217714	0.993988	-0.0364378	-0.149329	0.403549	0.490198	0.0295858	0.152422	0
211.13	-0.0954527	0.218385	0.993009	-0.0392554	-0.160275	0.404269	0.488411	0.020131	0.155346	0
211.14	-0.111024	0.216946	0.991012	-0.0219271	-0.170242	0.39948	0.509204	0.00169768	0.149857	0
211.15	-0.0954571	0.220269	0.99174	-0.047872	-0.178502	0.403776	0.487872	-0.0156518	0.150775	0
211.16	-0.0933626	0.22198	0.991647	-0.056881	-0.18429	0.398884	0.480346	-0.023508	0.143644	0
211.17	-0.0913301	0.223944	0.991881	-0.0654789	-0.191329	0.387225	0.469505	-0.023678	0.13014	0
211.18	-0.0897702	0.225855	0.992129	-0.0721885	-0.201052	0.376878	0.457785	-0.0210542	0.11177	0
211.19	-0.0891682	0.227373	0.992445	-0.0762071	-0.213147	0.368351	0.446952	-0.0175666	0.0918673	0
211.2	-0.0877965	0.229394	0.993135	-0.0807789	-0.225781	0.35688	0.435765	-0.0161083	0.0733485	0
211.21	-0.085931	0.231933	0.994086	-0.0856592	-0.239969	0.34033	0.423049	-0.0133698	0.0580331	0
211.22	-0.0838323	0.234307	0.995202	-0.089073	-0.256372	0.324313	0.410084	-0.0103599	0.0456395	0
211.23	-0.0981599	0.234012	0.995169	-0.0649752	-0.280323	0.30661	0.422015	-0.0118756	0.0358219	0
211.24	-0.0963818	0.235625	0.996876	-0.0645626	-0.301788	0.286729	0.407587	-0.00762558	0.0341488	0
211.25	-0.0801701	0.240141	0.999873	-0.0837711	-0.320807	0.266115	0.37379	-0.00383774	0.042366	0
211.26	-0.0768322	0.242533	1.0022	-0.0824598	-0.344984	0.240205	0.355333	0.00253663	0.0454013	0
211.27	-0.0745455	0.244031	1.00464	-0.0760614	-0.375022	0.205968	0.337987	0.00866412	0.0488746	0
211.28	-0.0843619	0.243504	1.00619	-0.0483235	-0.411599	0.171677	0.339284	0.0111188	0.0505885	0
211.29	-0.0674625	0.248312	1.00973	-0.0582019	-0.441929	0.139524	0.30258	0.0182102	0.060136	0
211.3	-0.0635658	0.250189	1.01247	-0.0488537	-0.475207	0.103201	0.282677	0.0252406	0.0662478	0
211.31	-0.0618761	0.251236	1.01479	-0.032288	-0.513314	0.0589148	0.266639	0.03113	0.0710998	0
211.32	-0.060407	0.252176	1.01696	-0.0130593	-0.554024	0.0181362	0.251242	0.0363139	0.0753838	0
211.33	-0.0594366	0.252893	1.01912	0.00818837	-0.595778	-0.0257941	0.235209	0.0442166	0.0774754	0
211.34	-0.0585968	0.253347	1.02093	0.0301698	-0.637587	-0.0684395	0.222055	0.0482635	0.081373	0
211.35	-0.0574079	0.253912	1.02236	0.0519808	-0.678837	-0.107079	0.208419	0.0524556	0.0882769	0
211.36	-0.0569719	0.253575	1.02352	0.0761699	-0.720783	-0.141836	0.194979	0.0587896	0.0942384	0
211.37	-0.0556328	0.253653	1.02462	0.0990191	-0.759872	-0.166394	0.181158	0.0655432	0.0943567	0
211.38	-0.0546981	0.253865	1.02546	0.121442	-0.797035	-0.176863	0.17043	0.0679513	0.0963461	0
211.39	-0.0637867	0.251507	1.02531	0.159656	-0.838448	-0.172682	0.172604	0.0709014	0.0971827	0
211.4	-0.0490268	0.253833	1.02689	0.157397	-0.862494	-0.160253	0.140568	0.0776324	0.10785	0
211.41	-0.0468523	0.253639	1.02753	0.175571	-0.889559	-0.140503	0.128348	0.0810112	0.111409	0
211.42	-0.0456876	0.252927	1.02786	0.195618	-0.914628	-0.119049	0.118731	0.0818479	0.115479	0
211.43	-0.0437333	0.252169	1.02815	0.214822	-0.936544	-0.0983251	0.107406	0.0836422	0.120046	0
211.44	-0.042391	0.25113	1.02831	0.234123	-0.953921	-0.0820133	0.0989847	0.0820346	0.126347	0
211.45	-0.0410555	0.250072	1.02848	0.252315	-0.966944	-0.0679371	0.0912074	0.0799012	0.131195	0
211.46	-0.0384707	0.249634	1.02888	0.266534	-0.97444	-0.0507774	0.0807584	0.0788587	0.135736	0
211.47	-0.0376494	0.248508	1.02895	0.282949	-0.978382	-0.0349617	0.0721275	0.0788674	0.141966	0
211.48	-0.0379602	0.246901	1.02889	0.300423	-0.978428	-0.0189677	0.0659135	0.0778119	0.150277	0
211.49	-0.0382314	0.245345	1.02889	0.316647	-0.974708	0.000869392	0.0598786	0.0760266	0.156261	0
211.5	-0.0365787	0.244368	1.02928	0.328231	-0.965712	0.0191363	0.0527433	0.071575	0.161228	0
211.51	-0.0341103	0.243663	1.02958	0.336188	-0.951426	0.0419983	0.0423814	0.0712688	0.163179	0
211.52	-0.0346698	0.241737	1.02938	0.349161	-0.936472	0.0618217	0.0377776	0.0686188	0.167195	0
211.53	-0.0492715	0.236552	1.02779	0.385113	-0.926168	0.0881699	0.0525228	0.0656945	0.169392	0
211.54	-0.0486816	0.234911	1.02759	0.396054	-0.907563	0.103824	0.0472381	0.0619538	0.176003	0
211.55	-0.0492556	0.233135	1.02734	0.408851	-0.888336	0.118839	0.0449099	0.055932	0.181693	0
211.56	-0.0499255	0.231171	1.02704	0.420525	-0.866218	0.135054	0.0409976	0.0519233	0.187605	0
211.57	-0.0358236	0.232399	1.02788	0.407742	-0.836895	0.150591	0.0174578	0.0468817	0.202529	0
211.58	-0.0365141	0.230499	1.02735	0.4174	-0.811272	0.167134	0.0137525	0.0434829	0.208108	0
211.59	-0.0474399	0.225681	1.02605	0.442086	-0.788404	0.174697	0.020595	0.0453569	0.205315	0
211.6	-0.0309339	0.227626	1.02712	0.424986	-0.755061	0.180604	-0.0127866	0.0542469	0.21164	0
211.61	-0.0296899	0.22609	1.02654	0.431209	-0.72745	0.189314	-0.0243443	0.0599022	0.214849	0
211.62	-0.0293345	0.224286	1.02568	0.438238	-0.698725	0.19747	-0.02986	0.0563617	0.224517	0
211.63	-0.0268775	0.222929	1.02509	0.440691	-0.66666	0.203997	-0.0387128	0.0539458	0.23196	0
211.64	-0.0283284	0.220631	1.02429	0.447115	-0.632697	0.209761	-0.0433686	0.0537802	0.233111	0
211.65	-0.0279274	0.218856	1.02351	0.450633	-0.598835	0.214922	-0.0526935	0.0573063	0.235613	0
211.66	-0.0275442	0.217323	1.02274	0.453121	-0.563436	0.215819	-0.0589945	0.0549857	0.243108	0
211.67	-0.028416	0.215354	1.0219	0.456964	-0.527125	0.21379	-0.0610917	0.0484708	0.250594	0
211.68	-0.0300392	0.212729	1.02083	0.461002	-0.490375	0.214412	-0.0655157	0.0476482	0.255048	0
211.69	-0.0285569	0.211429	1.0197	0.462946	-0.455219	0.214068	-0.0736568	0.0482859	0.260217	0
211.7	-0.0294599	0.209461	1.0185	0.466046	-0.419284	0.210717	-0.0809111	0.0515807	0.263278	0
211.71	-0.0297101	0.207903	1.01769	0.46616	-0.381536	0.206598	-0.0873596	0.0505724	0.266374	0
211.72	-0.0242349	0.207466	1.01739	0.457787	-0.343108	0.205368	-0.103322	0.0530963	0.268864	0
211.73	-0.0277518	0.20524	1.01591	0.461167	-0.304027	0.204542	-0.10406	0.0515452	0.27272	0
211.74	-0.0291622	0.202896	1.01442	0.463451	-0.268187	0.20324	-0.105624	0.0457857	0.279545	0
211.75	-0.0311884	0.200788	1.01303	0.466102	-0.233701	0.198833	-0.105562	0.0381027	0.287093	0
211.76	-0.047524	0.196066	1.01024	0.487074	-0.20181	0.19123	-0.0878041	0.031612	0.289265	0
211.77	-0.0378994	0.196586	1.00965	0.474828	-0.171605	0.18925	-0.103667	0.0254955	0.301831	0
211.78	-0.0358893	0.194844	1.00838	0.471632	-0.142453	0.186062	-0.110067	0.019206	0.311172	0
211.79	-0.0506787	0.191175	1.00559	0.490749	-0.114281	0.17891	-0.0929846	0.0121513	0.31607	0
211.8	-0.0348231	0.192709	1.00553	0.466947	-0.086159	0.180126	-0.118611	0.00573154	0.331108	0
211.81	-0.0341106	0.191556	1.00418	0.464761	-0.0624039	0.176039	-0.124183	0.000418681	0.337161	0
211.82	-0.0354436	0.189886	1.0025	0.466171	-0.0426682	0.17008	-0.127355	-0.00384997	0.341258	0
211.83	-0.0361479	0.188578	1.00097	0.466927	-0.0258845	0.166002	-0.132696	-0.00637566	0.345149	0
211.84	-0.03672	0.187484	0.999515	0.467537	-0.0132841	0.165546	-0.140736	-0.00470478	0.349938	0
211.85	-0.036381	0.186621	0.998318	0.466876	-0.00430021	0.164376	-0.151753	-3.45145e-06	0.350505	0
211.86	-0.0357354	0.185834	0.997139	0.466782	-0.000572235	0.165266	-0.160609	0.000228381	0.353784	0
211.87	-0.0350766	0.184755	0.995898	0.467792	-0.00202843	0.164477	-0.16575	-0.00475379	0.360348	0
211.88	-0.0361336	0.183345	0.994362	0.472786	-0.0100111	0.165215	-0.169309	-0.00927763	0.363561	0
211.89	-0.0364821	0.182653	0.993119	0.475191	-0.0190844	0.16676	-0.173729	-0.0158121	0.363708	0
211.9	-0.03573	0.182418	0.992186	0.475868	-0.0324174	0.167939	-0.178925	-0.0236074	0.36563	0
211.91	-0.0361047	0.181677	0.991274	0.47865	-0.0487207	0.1656	-0.185546	-0.0247582	0.366534	0
211.92	-0.036939	0.18085	0.990338	0.481855	-0.066325	0.163891	-0.192751	-0.0236238	0.363659	0
211.93	-0.0373459	0.180341	0.989685	0.48315	-0.0819154	0.161146	-0.200954	-0.0223471	0.359599	0
211.94	-0.0382357	0.179938	0.98934	0.483351	-0.0933051	0.154868	-0.205133	-0.027341	0.358483	0
211.95	-0.0398146	0.179631	0.989106	0.481806	-0.0999153	0.146467	-0.207595	-0.0347671	0.355046	0
211.96	-0.0415191	0.179433	0.988884	0.479046	-0.104308	0.135625	-0.210207	-0.0421249	0.349834	0
211.97	-0.0430249	0.179281	0.988825	0.474583	-0.106118	0.127843	-0.212693	-0.0500521	0.34253	0
211.98	-0.0432046	0.179608	0.9891	0.468952	-0.109536	0.120121	-0.215337	-0.0604937	0.336355	0
211.99	-0.0434892	0.180064	0.98943	0.463424	-0.113184	0.113142	-0.217178	-0.0718386	0.331644	0
212	-0.0446631	0.180367	0.989918	0.456713	-0.113036	0.103785	-0.216529	-0.08572	0.323899	0
212.01	-0.0587995	0.178504	0.989493	0.46771	-0.115461	0.0954798	-0.199336	-0.0990832	0.307215	0
212.02	-0.0473824	0.181685	0.991397	0.444767	-0.116738	0.0940337	-0.219724	-0.1041	0.292972	0
212.03	-0.0462416	0.182886	0.992806	0.435337	-0.120577	0.0937235	-0.225358	-0.111851	0.277278	0
212.04	-0.0482931	0.182964	0.994194	0.429848	-0.125059	0.0967428	-0.223073	-0.126627	0.264183	0
212.05	-0.0458244	0.184771	0.995834	0.417712	-0.125105	0.0995061	-0.223022	-0.145914	0.249664	0
212.06	-0.0558888	0.184234	0.996661	0.422237	-0.127256	0.100865	-0.204465	-0.169792	0.227135	0
212.07	-0.0448256	0.186924	0.999046	0.39838	-0.12899	0.108233	-0.216136	-0.188563	0.201981	0
212.08	-0.0430285	0.188592	1.00108	0.386549	-0.130352	0.113569	-0.216867	-0.203983	0.176835	0
212.09	-0.0410544	0.190476	1.00335	0.37302	-0.129342	0.119049	-0.215976	-0.221877	0.155427	0
212.1	-0.0391568	0.192363	1.00552	0.358392	-0.126275	0.125395	-0.210139	-0.24857	0.128575	0
212.11	-0.0377688	0.193705	1.00742	0.345012	-0.123262	0.130407	-0.201438	-0.277303	0.098803	0
212.12	-0.0352941	0.194742	1.00941	0.330259	-0.121042	0.133756	-0.193421	-0.307615	0.0654706	0
212.13	-0.0338795	0.196754	1.01136	0.315255	-0.114901	0.133235	-0.182791	-0.336554	0.0265575	0
212.14	-0.0422165	0.196637	1.01259	0.31317	-0.109304	0.131667	-0.154342	-0.373481	-0.00710116	0
212.15	-0.0286649	0.199824	1.01516	0.282609	-0.10432	0.14006	-0.152905	-0.412921	-0.0415747	0
212.16	-0.0385886	0.199095	1.01575	0.285261	-0.101808	0.143315	-0.115659	-0.460048	-0.0759509	0
212.17	-0.0267597	0.201703	1.01766	0.258422	-0.0990861	0.150874	-0.107352	-0.505783	-0.107611	0
212.18	-0.0262416	0.202175	1.01876	0.247854	-0.09821	0.152163	-0.0800332	-0.556308	-0.14227	0
212.19	-0.0241946	0.202907	1.01977	0.235227	-0.0967931	0.154721	-0.0543636	-0.606396	-0.173339	0
